<svg xmlns="http://www.w3.org/2000/svg" width="1920" height="1080" viewBox="0 0 1920 1080" role="img" aria-label="Moods &amp; Vibes — movies collection cover" shape-rendering="geometricPrecision" text-rendering="geometricPrecision">
  <title>Moods &amp; Vibes — movies collection cover</title>
  <defs>
    <linearGradient id="titleFill" x1="0" y1="0" x2="0" y2="1">
      <stop offset="0" stop-color="#FFFFFF"/>
      <stop offset="1" stop-color="#D7DCE6"/>
    </linearGradient>
    <linearGradient id="feather" x1="0" y1="0" x2="1" y2="0">
      <stop offset="0" stop-color="#0B0C10" stop-opacity="1"/>
      <stop offset="0.6" stop-color="#0B0C10" stop-opacity="0.55"/>
      <stop offset="1" stop-color="#0B0C10" stop-opacity="0"/>
    </linearGradient>
    <linearGradient id="panelShade" x1="0" y1="0" x2="1" y2="0.5">
      <stop offset="0" stop-color="rgba(6,7,10,0)"/>
      <stop offset="1" stop-color="rgba(6,7,10,0.42)"/>
    </linearGradient>
    <radialGradient id="vignette" cx="0.42" cy="0.5" r="0.85">
      <stop offset="0.55" stop-color="rgba(0,0,0,0)"/>
      <stop offset="1" stop-color="rgba(0,0,0,0.45)"/>
    </radialGradient>
    <clipPath id="cardClip">
      <rect x="970" y="60" width="890" height="960" rx="30"/>
    </clipPath>

    <linearGradient id="ivoryS" x1="0" y1="0" x2="1" y2="1">
      <stop offset="0" stop-color="#FFFFFF"/><stop offset="1" stop-color="#9AA2B4"/>
    </linearGradient>
    <radialGradient id="glow" cx="0.5" cy="0.5" r="0.5">
      <stop offset="0" stop-color="#C8A96A" stop-opacity="0.26"/>
      <stop offset="0.55" stop-color="#C8A96A" stop-opacity="0.05"/>
      <stop offset="1" stop-color="#C8A96A" stop-opacity="0"/>
    </radialGradient>
    <linearGradient id="beamG" x1="0" y1="0" x2="0" y2="1">
      <stop offset="0" stop-color="#FFFFFF" stop-opacity="0.34"/>
      <stop offset="1" stop-color="#FFFFFF" stop-opacity="0"/>
    </linearGradient>
    <linearGradient id="barG" x1="0" y1="1" x2="0" y2="0">
      <stop offset="0" stop-color="#3A3F4D"/><stop offset="0.6" stop-color="#C9CEDB"/><stop offset="1" stop-color="#FFFFFF"/>
    </linearGradient>
    <linearGradient id="colG" x1="0" y1="1" x2="0" y2="0">
      <stop offset="0" stop-color="#4A5060" stop-opacity="0.85"/>
      <stop offset="1" stop-color="#E8ECF4"/>
    </linearGradient>
    <radialGradient id="disc" cx="0.38" cy="0.34" r="0.75">
      <stop offset="0" stop-color="#FFFFFF" stop-opacity="0.9"/>
      <stop offset="1" stop-color="#C8A96A" stop-opacity="0.12"/>
    </radialGradient>
    <style>
      .glow { animation: glowPulse 11s ease-in-out infinite; }
      @keyframes glowPulse { 0%,100% { opacity: 0.68; } 50% { opacity: 1; } }
      @media (prefers-reduced-motion: reduce) { .glow { animation: none; } }
    </style>
  </defs>

  <rect x="0" y="0" width="1920" height="1080" fill="#08090C"/>

  <rect x="970" y="60" width="890" height="960" rx="30" fill="#0B0C10"/>
  <g clip-path="url(#cardClip)">
    <g>
      <circle cx="1415" cy="540" r="528" fill="url(#glow)" class="glow"/>
    <path d="M 1067.9 540 L 1075.1 556.9 L 1082.4 573.7 L 1089.6 590.2 L 1096.8 606.1 L 1104.1 621.5 L 1111.3 636 L 1118.5 649.6 L 1125.8 662.2 L 1133 673.6 L 1140.2 683.7 L 1147.4 692.4 L 1154.7 699.6 L 1161.9 705.4 L 1169.1 709.5 L 1176.4 712 L 1183.6 712.8 L 1190.8 712 L 1198.1 709.5 L 1205.3 705.4 L 1212.5 699.6 L 1219.8 692.4 L 1227 683.7 L 1234.2 673.6 L 1241.5 662.2 L 1248.7 649.6 L 1255.9 636 L 1263.1 621.5 L 1270.4 606.1 L 1277.6 590.2 L 1284.8 573.7 L 1292.1 556.9 L 1299.3 540 L 1306.5 523.1 L 1313.8 506.3 L 1321 489.8 L 1328.2 473.9 L 1335.5 458.5 L 1342.7 444 L 1349.9 430.4 L 1357.2 417.8 L 1364.4 406.4 L 1371.6 396.3 L 1378.8 387.6 L 1386.1 380.4 L 1393.3 374.6 L 1400.5 370.5 L 1407.8 368 L 1415 367.2 L 1422.2 368 L 1429.5 370.5 L 1436.7 374.6 L 1443.9 380.4 L 1451.2 387.6 L 1458.4 396.3 L 1465.6 406.4 L 1472.9 417.8 L 1480.1 430.4 L 1487.3 444 L 1494.5 458.5 L 1501.8 473.9 L 1509 489.8 L 1516.2 506.3 L 1523.5 523.1 L 1530.7 540 L 1537.9 556.9 L 1545.2 573.7 L 1552.4 590.2 L 1559.6 606.1 L 1566.9 621.5 L 1574.1 636 L 1581.3 649.6 L 1588.6 662.2 L 1595.8 673.6 L 1603 683.7 L 1610.2 692.4 L 1617.5 699.6 L 1624.7 705.4 L 1631.9 709.5 L 1639.2 712 L 1646.4 712.8 L 1653.6 712 L 1660.9 709.5 L 1668.1 705.4 L 1675.3 699.6 L 1682.6 692.4 L 1689.8 683.7 L 1697 673.6 L 1704.3 662.2 L 1711.5 649.6 L 1718.7 636 L 1725.9 621.5 L 1733.2 606.1 L 1740.4 590.2 L 1747.6 573.7 L 1754.9 556.9 L 1762.1 540" fill="none" stroke="url(#ivoryS)" stroke-width="3" opacity="0.85"/>
    <path d="M 1067.9 647.4 L 1075.1 652.7 L 1082.4 655.1 L 1089.6 654.4 L 1096.8 650.6 L 1104.1 643.9 L 1111.3 634.4 L 1118.5 622.3 L 1125.8 608.1 L 1133 592.1 L 1140.2 574.6 L 1147.4 556.3 L 1154.7 537.5 L 1161.9 518.7 L 1169.1 500.6 L 1176.4 483.5 L 1183.6 467.9 L 1190.8 454.2 L 1198.1 442.8 L 1205.3 434.1 L 1212.5 428.1 L 1219.8 425.1 L 1227 425.2 L 1234.2 428.4 L 1241.5 434.6 L 1248.7 443.5 L 1255.9 455.1 L 1263.1 468.9 L 1270.4 484.6 L 1277.6 501.8 L 1284.8 520 L 1292.1 538.8 L 1299.3 557.5 L 1306.5 575.8 L 1313.8 593.2 L 1321 609.1 L 1328.2 623.2 L 1335.5 635.1 L 1342.7 644.4 L 1349.9 650.9 L 1357.2 654.5 L 1364.4 655 L 1371.6 652.5 L 1378.8 646.9 L 1386.1 638.5 L 1393.3 627.4 L 1400.5 614 L 1407.8 598.7 L 1415 581.7 L 1422.2 563.7 L 1429.5 545 L 1436.7 526.2 L 1443.9 507.8 L 1451.2 490.2 L 1458.4 473.9 L 1465.6 459.4 L 1472.9 447.1 L 1480.1 437.2 L 1487.3 430.1 L 1494.5 426 L 1501.8 424.8 L 1509 426.8 L 1516.2 431.8 L 1523.5 439.6 L 1530.7 450.2 L 1537.9 463.1 L 1545.2 478.1 L 1552.4 494.8 L 1559.6 512.6 L 1566.9 531.2 L 1574.1 550.1 L 1581.3 568.6 L 1588.6 586.4 L 1595.8 603 L 1603 617.8 L 1610.2 630.6 L 1617.5 641 L 1624.7 648.7 L 1631.9 653.5 L 1639.2 655.2 L 1646.4 653.9 L 1653.6 649.5 L 1660.9 642.2 L 1668.1 632.1 L 1675.3 619.7 L 1682.6 605 L 1689.8 588.7 L 1697 571 L 1704.3 552.5 L 1711.5 533.7 L 1718.7 515.1 L 1725.9 497.1 L 1733.2 480.2 L 1740.4 465 L 1747.6 451.7 L 1754.9 440.9 L 1762.1 432.6" fill="none" stroke="url(#ivoryS)" stroke-width="2" opacity="0.5"/>
    <path d="M 1067.9 591.9 L 1075.1 577.7 L 1082.4 561.5 L 1089.6 544.2 L 1096.8 526.7 L 1104.1 509.8 L 1111.3 494.6 L 1118.5 481.7 L 1125.8 471.9 L 1133 465.6 L 1140.2 463.2 L 1147.4 464.8 L 1154.7 470.4 L 1161.9 479.6 L 1169.1 491.9 L 1176.4 506.8 L 1183.6 523.4 L 1190.8 540.9 L 1198.1 558.3 L 1205.3 574.7 L 1212.5 589.4 L 1219.8 601.4 L 1227 610.3 L 1234.2 615.5 L 1241.5 616.7 L 1248.7 614 L 1255.9 607.3 L 1263.1 597.2 L 1270.4 584 L 1277.6 568.6 L 1284.8 551.7 L 1292.1 534.1 L 1299.3 516.9 L 1306.5 500.9 L 1313.8 486.9 L 1321 475.7 L 1328.2 467.8 L 1335.5 463.8 L 1342.7 463.7 L 1349.9 467.6 L 1357.2 475.2 L 1364.4 486.3 L 1371.6 500.2 L 1378.8 516.1 L 1386.1 533.3 L 1393.3 550.9 L 1400.5 567.8 L 1407.8 583.4 L 1415 596.6 L 1422.2 606.9 L 1429.5 613.7 L 1436.7 616.7 L 1443.9 615.6 L 1451.2 610.6 L 1458.4 601.9 L 1465.6 590 L 1472.9 575.5 L 1480.1 559.1 L 1487.3 541.7 L 1494.5 524.2 L 1501.8 507.5 L 1509 492.6 L 1516.2 480.1 L 1523.5 470.7 L 1530.7 465 L 1537.9 463.2 L 1545.2 465.4 L 1552.4 471.5 L 1559.6 481.2 L 1566.9 493.9 L 1574.1 509.1 L 1581.3 525.9 L 1588.6 543.4 L 1595.8 560.7 L 1603 577 L 1610.2 591.3 L 1617.5 602.9 L 1624.7 611.3 L 1631.9 615.9 L 1639.2 616.6 L 1646.4 613.2 L 1653.6 606.1 L 1660.9 595.5 L 1668.1 582 L 1675.3 566.3 L 1682.6 549.2 L 1689.8 531.6 L 1697 514.5 L 1704.3 498.7 L 1711.5 485.1 L 1718.7 474.3 L 1725.9 467 L 1733.2 463.5 L 1740.4 464 L 1747.6 468.4 L 1754.9 476.6 L 1762.1 488.1" fill="none" stroke="url(#ivoryS)" stroke-width="2" opacity="0.3"/>
    </g>
    <rect x="970" y="60" width="890" height="960" fill="url(#panelShade)"/>
    <rect x="970" y="60" width="373.8" height="960" fill="url(#feather)"/>
  </g>
  <rect x="970.75" y="60.75" width="888.5" height="958.5" rx="30" fill="none" stroke="rgba(255,255,255,0.10)" stroke-width="1.5"/>
  <rect x="0" y="0" width="1920" height="1080" fill="url(#vignette)"/>

  <g>
    <text x="140" y="452.9" font-family="Inter" font-size="121" font-weight="800" letter-spacing="-4.24" fill="url(#titleFill)">Moods</text>
    <text x="140" y="569.1" font-family="Inter" font-size="121" font-weight="800" letter-spacing="-4.24" fill="url(#titleFill)">&amp; Vibes</text>
    <text x="140" y="673.7" font-family="Inter" font-size="32" font-weight="600" letter-spacing="6.40" fill="rgba(231,235,243,0.52)">Mind Bending</text>
    <text x="140" y="719.2" font-family="Inter" font-size="32" font-weight="600" letter-spacing="6.40" fill="rgba(231,235,243,0.52)">Cozy &amp; Comforting  ·  Feel Good</text>
    <text x="140" y="764.6" font-family="Inter" font-size="32" font-weight="600" letter-spacing="6.40" fill="rgba(231,235,243,0.52)">Slow Burn  ·  +46 more</text>
  </g>

  <rect x="0.75" y="0.75" width="1918.5" height="1078.5" fill="none" stroke="rgba(255,255,255,0.05)" stroke-width="1.5"/>
</svg>
